# xmcd
#
# Track frame offsets:
#	150
#	17626
#	37825
#	53146
#	68997
#	84458
#	105132
#	126005
#	140723
#	164911
#	184861
#	208681
#	230643
#	254950
#	276036
#	287834
#	306141
#	322941
#
# Disc length: 4576 seconds
#
# Revision: 1
# Processed by: cddbd v1.5.2PL0 Copyright (c) Steve Scherf et al.
# Submitted via: audiograbber 1.83.01
#
DISCID=0a11de12
DTITLE=Hasse anderson - Här é Já
DYEAR=2007
DGENRE=
TTITLE0=Annat Var Det Förr
TTITLE1=Minnet Av Dig
TTITLE2=Tankar Om Natten
TTITLE3=Stora Vita Hus
TTITLE4=Du Är Så Fin
TTITLE5=Arrendatorns Klagan
TTITLE6=Bjäreland
TTITLE7=Här Är Jag
TTITLE8=Berit
TTITLE9=Marknadsvarité
TTITLE10=Septemberkväll
TTITLE11=Betsy
TTITLE12=Nicke
TTITLE13=Jag Har Skrivit Mina Sånger
TTITLE14=Slåtter Hos Nils-Mats
TTITLE15=Sommarbyn
TTITLE16=Jennys Sång
TTITLE17=Kung Ola
EXTD=
EXTT0=
EXTT1=
EXTT2=
EXTT3=
EXTT4=
EXTT5=
EXTT6=
EXTT7=
EXTT8=
EXTT9=
EXTT10=
EXTT11=
EXTT12=
EXTT13=
EXTT14=
EXTT15=
EXTT16=
EXTT17=
PLAYORDER=
